HIERARCHY
ROOT root
{
	OFFSET 0.000000 0.000000 0.000000
	CHANNELS 6 Xposition Yposition Zposition Zrotation Yrotation Xrotation
	JOINT lhip
	{
		OFFSET 0.058581 -0.082280 -0.017664
		CHANNELS 3 Zrotation Yrotation Xrotation
		JOINT lknee
		{
			OFFSET 0.043451 -0.386469 0.008037
			CHANNELS 3 Zrotation Yrotation Xrotation
			JOINT lankle
			{
				OFFSET -0.014790 -0.426874 -0.037428
				CHANNELS 3 Zrotation Yrotation Xrotation
				JOINT ltoe
				{
					OFFSET 0.041054 -0.060286 0.122042
					CHANNELS 3 Zrotation Yrotation Xrotation
					End Site
					{
						OFFSET 0.000000 0.000000 0.000000
					}
				}
			}
		}
	}
	JOINT rhip
	{
		OFFSET -0.060310 -0.090513 -0.013543
		CHANNELS 3 Zrotation Yrotation Xrotation
		JOINT rknee
		{
			OFFSET -0.043257 -0.383688 -0.004843
			CHANNELS 3 Zrotation Yrotation Xrotation
			JOINT rankle
			{
				OFFSET 0.019056 -0.420046 -0.034562
				CHANNELS 3 Zrotation Yrotation Xrotation
				JOINT rtoe
				{
					OFFSET -0.034840 -0.062106 0.130323
					CHANNELS 3 Zrotation Yrotation Xrotation
					End Site
					{
						OFFSET 0.000000 0.000000 0.000000
					}
				}
			}
		}
	}
	JOINT lowerback
	{
		OFFSET 0.004439 0.124404 -0.038385
		CHANNELS 3 Zrotation Yrotation Xrotation
		JOINT upperback
		{
			OFFSET 0.004488 0.137956 0.026820
			CHANNELS 3 Zrotation Yrotation Xrotation
			JOINT chest
			{
				OFFSET -0.002265 0.056032 0.002855
				CHANNELS 3 Zrotation Yrotation Xrotation
				JOINT lowerneck
				{
					OFFSET -0.013390 0.211636 -0.033468
					CHANNELS 3 Zrotation Yrotation Xrotation
					JOINT upperneck
					{
						OFFSET 0.010113 0.088937 0.050410
						CHANNELS 3 Zrotation Yrotation Xrotation
						End Site
						{
							OFFSET 0.000000 0.000000 0.000000
						}
					}
				}
				JOINT lclavicle
				{
					OFFSET 0.071702 0.114000 -0.018898
					CHANNELS 3 Zrotation Yrotation Xrotation
					JOINT lshoulder
					{
						OFFSET 0.122921 0.045205 -0.019046
						CHANNELS 3 Zrotation Yrotation Xrotation
						JOINT lelbow
						{
							OFFSET 0.255332 -0.015649 -0.022946
							CHANNELS 3 Zrotation Yrotation Xrotation
							JOINT lwrist
							{
								OFFSET 0.265709 0.012698 -0.007375
								CHANNELS 3 Zrotation Yrotation Xrotation
								End Site
								{
									OFFSET 0.000000 0.000000 0.000000
								}
							}
						}
					}
				}
				JOINT rclavicle
				{
					OFFSET -0.082954 0.112472 -0.023707
					CHANNELS 3 Zrotation Yrotation Xrotation
					JOINT rshoulder
					{
						OFFSET -0.113228 0.046853 -0.008472
						CHANNELS 3 Zrotation Yrotation Xrotation
						JOINT relbow
						{
							OFFSET -0.260127 -0.014369 -0.031269
							CHANNELS 3 Zrotation Yrotation Xrotation
							JOINT rwrist
							{
								OFFSET -0.269108 0.006794 -0.006027
								CHANNELS 3 Zrotation Yrotation Xrotation
								End Site
								{
									OFFSET 0.000000 0.000000 0.000000
								}
							}
						}
					}
				}
			}
		}
	}
}
MOTION
Frames: 6
Frame Time: 0.033333
2.659616 1.650976 0.988624 -25.458341 1.238451 81.939967 1.766228 6.564319 8.313775 -3.789121 2.961777 1.238967 4.563725 16.814856 -9.017175 0.000000 -0.000000 0.000000 0.522391 -1.037925 -5.178929 -0.619389 -7.829085 25.291967 2.192721 -9.870054 -13.159302 0.000000 -0.000000 0.000000 -2.745681 -0.469328 5.324817 0.240590 -2.319190 10.047185 0.437349 -1.876115 -0.635833 3.436893 5.720508 11.496462 5.147202 4.424025 -6.184810 -17.896249 -0.345483 2.174767 -60.667487 -3.312042 9.470424 6.959671 -27.853476 5.237954 -18.355990 -9.851276 3.707629 15.863773 4.739913 6.685387 61.995794 2.553010 11.727272 -8.458773 35.639256 5.009329 13.981402 8.671620 -2.773767 
2.659210 1.650865 0.988523 -25.243125 1.219475 81.999148 1.744718 6.576853 8.125151 -3.742525 2.861084 1.428147 4.705419 16.739877 -8.984731 0.000000 -0.000000 0.000000 0.523432 -1.361488 -5.293336 -0.705873 -7.775231 25.461641 2.025666 -9.852507 -13.274001 0.000000 -0.000000 0.000000 -2.602781 -0.558254 5.501649 0.207567 -2.578487 9.588379 0.306794 -1.873182 -0.672164 3.325540 5.500976 11.470124 5.249607 4.463731 -5.583080 -17.711968 -0.321696 2.195823 -60.896872 -3.123838 9.623101 7.095380 -27.834681 5.456808 -18.076399 -9.998029 3.222188 15.951113 4.800342 6.723890 61.999822 2.523058 12.089413 -8.640828 35.677973 5.153113 13.784795 8.730232 -3.295655 
2.658823 1.650559 0.988435 -25.143510 1.193036 82.035894 1.697615 6.535044 8.013679 -3.678243 2.905615 1.541265 4.704749 16.743193 -8.981677 0.000000 -0.000000 0.000000 0.525834 -1.404817 -5.384115 -0.715562 -7.689964 25.631759 1.987134 -9.986673 -13.375004 0.000000 -0.000000 0.000000 -2.572388 -0.539037 5.334285 0.249801 -2.590824 9.607392 0.344889 -1.987827 -0.554884 3.395728 5.601032 11.564387 5.104129 4.620807 -5.474116 -17.681892 -0.434955 2.200885 -61.101269 -3.318663 9.698612 7.281538 -27.831219 5.297988 -18.150329 -10.003415 3.222533 15.826259 4.830424 6.553852 62.061987 2.582010 12.187768 -8.719894 35.697628 5.099542 13.851434 8.729784 -3.364914 
2.658433 1.650048 0.988260 -25.133827 0.970255 82.146255 1.371513 6.507212 7.837030 -3.557006 3.006187 1.633867 4.802439 16.822910 -8.965404 0.000000 -0.000000 0.000000 0.344035 -1.496424 -5.619758 -0.753829 -7.448466 25.895938 1.944272 -10.123667 -13.463486 0.000000 -0.000000 0.000000 -2.672281 -0.559070 5.178702 0.218542 -2.664297 9.610976 0.260135 -1.976801 -0.671375 3.400471 5.597500 11.647190 5.124456 4.666185 -5.397988 -17.564303 -0.391171 2.140627 -61.273448 -3.459760 9.852931 7.429251 -28.116804 5.108846 -18.181794 -10.026449 3.277974 15.776618 4.827331 6.479032 62.192488 2.612357 12.288253 -8.788385 35.711337 4.977827 13.849939 8.752779 -3.340937 
2.658300 1.649789 0.988126 -25.148438 0.794664 82.207181 1.116413 6.507433 7.745964 -3.485448 3.094752 1.654318 4.890132 16.886252 -8.938766 0.000000 -0.000000 0.000000 0.167410 -1.577284 -5.772044 -0.764532 -7.333777 26.060164 1.926485 -10.163158 -13.530040 0.000000 -0.000000 0.000000 -2.751695 -0.575910 5.166495 0.172304 -2.721751 9.572790 0.184746 -1.951679 -0.739365 3.398765 5.594383 11.620329 5.154366 4.690163 -5.500524 -17.502315 -0.321537 2.044385 -61.336268 -3.536238 9.924053 7.483533 -28.427416 4.996510 -18.173089 -10.079686 3.294987 15.740185 4.846433 6.440769 62.298983 2.617558 12.354259 -8.838966 35.735983 4.901305 13.832981 8.775129 -3.305302 
2.657643 1.649291 0.988099 -25.014638 0.855954 82.092351 1.226972 6.476647 7.896292 -3.471014 3.031258 1.642074 4.836336 16.835764 -8.972648 0.000000 -0.000000 0.000000 0.301292 -1.509468 -5.536616 -0.871229 -7.494374 25.984067 1.867445 -10.219495 -13.662462 0.000000 -0.000000 0.000000 -2.587661 -0.743705 5.476761 0.112294 -2.772611 9.269561 0.119688 -1.964944 -0.682758 3.402840 5.591316 11.522024 5.146720 4.704484 -5.649325 -17.491844 -0.255084 1.962990 -61.348894 -3.644745 9.876892 7.422600 -29.019141 5.163126 -18.008047 -10.208285 3.064267 15.671274 4.833722 6.402204 62.378817 2.603776 12.383321 -8.785260 35.815859 5.090003 13.855140 8.786932 -3.410738 
